<svg width="165" height="59" viewBox="0 0 165 59" fill="none" xmlns="http://www.w3.org/2000/svg">
<path d="M0 29.1768C0 13.0629 13.0058 0 29.0493 0C45.0928 0 58.0986 13.0629 58.0986 29.1768C58.0986 45.2907 45.0928 58.3537 29.0493 58.3537C13.0058 58.3537 0 45.2907 0 29.1768Z" fill="#342415"/>
<path d="M53.4507 29.1768C53.4507 13.0629 66.4565 0 82.5 0C98.5435 0 111.549 13.0629 111.549 29.1768C111.549 45.2907 98.5435 58.3537 82.5 58.3537C66.4565 58.3537 53.4507 45.2907 53.4507 29.1768Z" fill="#342415"/>
<path d="M106.901 29.1768C106.901 13.0629 119.907 0 135.951 0C151.994 0 165 13.0629 165 29.1768C165 45.2907 151.994 58.3537 135.951 58.3537C119.907 58.3537 106.901 45.2907 106.901 29.1768Z" fill="#342415"/>
</svg>
